<?xml version="1.0" standalone="no"?>
<!DOCTYPE svg PUBLIC "-//W3C//DTD SVG 20010904//EN"
 "http://www.w3.org/TR/2001/REC-SVG-20010904/DTD/svg10.dtd">
<svg version="1.0" xmlns="http://www.w3.org/2000/svg"
 width="750.000000pt" height="450.000000pt" viewBox="0 0 750.000000 450.000000"
 preserveAspectRatio="xMidYMid meet">

<g transform="translate(0.000000,450.000000) scale(0.100000,-0.100000)"
fill="#000000" stroke="none">
<path d="M3300 1104 c-111 -112 -306 -176 -595 -194 -161 -10 -227 -28 -312
-89 -96 -68 -184 -196 -197 -287 -6 -38 -5 -38 8 7 44 151 174 285 319 331 59
18 147 25 147 11 0 -5 -9 -42 -20 -83 -11 -41 -22 -113 -24 -160 -3 -47 -3
-71 0 -55 20 142 29 188 45 242 22 69 15 66 149 78 100 9 267 53 346 92 l72
34 103 -49 c123 -60 220 -83 344 -83 138 -1 290 44 387 112 l31 22 46 -25 c88
-50 237 -89 405 -108 50 -5 93 -15 97 -22 14 -22 51 -186 59 -260 6 -60 8 -65
9 -26 1 50 -30 223 -48 272 l-12 29 71 -5 c79 -6 183 -51 253 -108 63 -53 139
-179 160 -265 2 -11 3 -2 0 19 -6 59 -67 166 -131 230 -106 105 -181 134 -377
146 -286 17 -470 77 -594 194 -42 39 -49 44 -32 19 11 -17 35 -43 53 -58 36
-31 39 -27 -67 -80 -206 -103 -439 -99 -657 11 -36 18 -69 38 -73 44 -4 6 5
20 19 31 23 18 72 79 64 79 -2 0 -24 -21 -48 -46z"/>
<path d="M4100 869 c-148 -89 -283 -123 -465 -117 -113 4 -142 9 -225 37 -52
18 -123 47 -157 65 -35 19 -60 29 -57 24 11 -18 166 -89 247 -112 206 -60 404
-38 612 66 59 30 132 79 115 77 -3 -1 -34 -19 -70 -40z"/>
<path d="M3713 206 c-12 -13 -17 -28 -13 -32 5 -5 10 -20 12 -33 5 -37 28 -39
28 -3 0 17 6 33 13 35 9 4 8 8 -3 16 -12 9 -12 11 3 17 9 3 14 10 11 15 -9 16
-30 10 -51 -15z"/>
<path d="M3862 219 c2 -6 8 -10 13 -10 5 0 11 4 13 10 2 6 -4 11 -13 11 -9 0
-15 -5 -13 -11z"/>
<path d="M4173 212 c-3 -13 -15 -22 -32 -24 -18 -2 -27 -10 -29 -26 -5 -33 14
-50 53 -49 38 1 47 17 38 73 -7 41 -22 54 -30 26z m-5 -59 c-4 -22 -22 -20
-26 1 -2 10 3 16 13 16 10 0 15 -7 13 -17z"/>
<path d="M3102 168 c3 -47 6 -53 26 -56 13 -2 34 4 48 12 49 33 17 96 -49 96
-28 0 -28 -1 -25 -52z m63 -3 c0 -11 -8 -21 -17 -23 -14 -3 -18 3 -18 23 0 20
4 26 18 23 9 -2 17 -12 17 -23z"/>
<path d="M4224 188 c10 -53 22 -53 32 0 6 28 4 32 -16 32 -20 0 -22 -4 -16
-32z"/>
<path d="M3220 149 c0 -44 22 -52 28 -10 2 12 10 25 18 28 25 9 15 23 -16 23
-28 0 -30 -2 -30 -41z"/>
<path d="M3296 159 c-8 -40 -5 -42 45 -45 l40 -2 -3 37 c-3 34 -5 36 -39 39
-34 3 -37 1 -43 -29z m54 -13 c0 -3 -4 -8 -10 -11 -5 -3 -10 -1 -10 4 0 6 5
11 10 11 6 0 10 -2 10 -4z"/>
<path d="M3390 185 c0 -3 7 -21 14 -40 17 -39 30 -44 45 -17 9 16 11 16 25 -3
18 -25 33 -13 42 33 5 25 3 32 -10 32 -9 0 -16 -8 -16 -17 0 -15 -2 -14 -15 3
-14 18 -16 18 -29 1 -12 -15 -14 -16 -20 -2 -5 14 -36 22 -36 10z"/>
<path d="M3574 153 c1 -37 2 -38 39 -39 38 -1 38 -1 35 35 -3 33 -6 36 -39 39
-36 3 -36 3 -35 -35z m43 11 c-3 -3 -12 -4 -19 -1 -8 3 -5 6 6 6 11 1 17 -2
13 -5z m3 -24 c0 -5 -4 -10 -10 -10 -5 0 -10 5 -10 10 0 6 5 10 10 10 6 0 10
-4 10 -10z"/>
<path d="M3772 153 c4 -44 28 -52 38 -13 4 14 12 24 18 23 7 -2 12 4 12 12 0
11 -11 15 -36 15 -35 0 -35 -1 -32 -37z"/>
<path d="M3860 149 c0 -52 24 -48 28 4 2 28 -1 37 -12 37 -12 0 -16 -11 -16
-41z"/>
<path d="M3911 171 c-21 -38 14 -70 60 -56 16 5 19 14 17 38 -3 28 -7 32 -35
35 -23 2 -34 -2 -42 -17z m44 -1 c3 -5 1 -10 -4 -10 -6 0 -11 5 -11 10 0 6 2
10 4 10 3 0 8 -4 11 -10z m10 -30 c-3 -5 -10 -10 -16 -10 -5 0 -9 5 -9 10 0 6
7 10 16 10 8 0 12 -4 9 -10z"/>
<path d="M4010 149 c0 -46 23 -51 28 -6 4 35 20 35 24 0 2 -17 9 -28 18 -28
13 0 15 8 11 60 -1 11 -13 15 -41 15 l-40 0 0 -41z"/>
<path d="M4225 131 c-7 -12 12 -24 25 -16 11 7 4 25 -10 25 -5 0 -11 -4 -15
-9z"/>
</g>
</svg>
