<?xml version="1.0" encoding="UTF-8" standalone="no"?>
<!-- Created with Inkscape (http://www.inkscape.org/) -->

<svg
   width="11in"
   height="8.5in"
   viewBox="0 0 1056 816.00001"
   version="1.1"
   id="svg5"
   xml:space="preserve"
   sodipodi:docname="Animals-drawing.svg"
   inkscape:version="1.2.1 (9c6d41e410, 2022-07-14)"
   xmlns:inkscape="http://www.inkscape.org/namespaces/inkscape"
   xmlns:sodipodi="http://sodipodi.sourceforge.net/DTD/sodipodi-0.dtd"
   xmlns="http://www.w3.org/2000/svg"
   xmlns:svg="http://www.w3.org/2000/svg"><sodipodi:namedview
     id="namedview7"
     pagecolor="#ffffff"
     bordercolor="#000000"
     borderopacity="0.25"
     inkscape:showpageshadow="2"
     inkscape:pageopacity="0.0"
     inkscape:pagecheckerboard="0"
     inkscape:deskcolor="#d1d1d1"
     inkscape:document-units="mm"
     showgrid="false"
     inkscape:zoom="0.74208053"
     inkscape:cx="396.18342"
     inkscape:cy="239.19237"
     inkscape:window-width="1920"
     inkscape:window-height="991"
     inkscape:window-x="859"
     inkscape:window-y="2151"
     inkscape:window-maximized="1"
     inkscape:current-layer="layer1"
     showguides="true"><sodipodi:guide
       position="347.67116,1100.3357"
       orientation="0,-1"
       id="guide203"
       inkscape:locked="false" /></sodipodi:namedview><defs
     id="defs2" /><g
     inkscape:label="Layer 1"
     inkscape:groupmode="layer"
     id="layer1"><g
       id="g36"
       transform="translate(66.181534,-205.90646)"><path
         d="m 190.9,415.9 c 0.4,-1.1 1.1,-1.8 0.8,-3.1 -8.1,-3.3 -16.2,-7 -23.5,-12.1 -9.7,-6.7 -17.7,-14.9 -22.1,-26.1 -2.5,-6.2 -3.6,-12.6 -3,-19.2 0.2,-2.5 -0.5,-4 -2.7,-5.1 -3.5,-1.7 -6.6,-4 -9.4,-6.7 -1.8,-1.7 -3.8,-3.7 -3.8,-6.1 -0.1,-3.1 -1.6,-4 -4.1,-5 -8.4,-3.2 -10.3,-8.8 -5.8,-16.6 0.3,-0.5 0.5,-1 0.9,-1.7 -1.6,-0.9 -3.1,-1.7 -4.6,-2.7 -7.7,-5 -8.7,-12.2 -2.5,-18.9 2.9,-3.2 6.2,-6.1 9.5,-8.8 11.6,-9.7 24.5,-16.7 39.9,-18.2 13.2,-1.2 25.3,2.2 36.2,9.7 2.4,1.7 4.3,1.9 7,0.7 29.7,-12.9 56.4,-8 79.9,14.7 1.2,1.2 2.2,2 4.2,1.5 25.1,-6.6 45.2,1.6 61.5,20.9 5.8,6.8 10.2,14.5 14,22.6 1.2,2.7 2.1,5.5 2,8.5 -0.2,5.1 -4.1,8.7 -10.2,10 -4.9,1 -4.9,1 -4.5,5.7 0.4,4.5 -2,8.3 -6.2,9.9 -2,0.7 -4.1,1.2 -6.2,1 -2.4,-0.2 -3.5,0.5 -4.4,2.7 -1.1,2.8 -3.9,3.9 -6.5,5 -3.7,1.6 -7.5,2.5 -11.5,3 -1.6,0.2 -2.5,0.8 -3,2.4 -5.2,17.6 -17.5,27.9 -34.4,33.5 -1.2,0.4 -2.4,0.9 -3.7,1.4 0.6,2.4 2.2,4 3.3,5.8 5.8,9.5 13,18 18.4,27.8 0.7,1.4 1.9,1.5 3.2,1.6 13.5,1.4 23.3,10.9 25,24.3 0.2,1.3 0.3,2.5 1.3,3.5 0.1,0.1 0.2,0.2 0.2,0.3 3.7,6.4 4.6,13.9 4.9,20.9 0.3,6.8 -5.5,11.8 -11,15.9 -5.8,4.4 -12.1,7.5 -19.3,8.8 -10.9,2 -19.6,-2.3 -24.7,-12.1 -0.6,-1.2 -1.2,-2.5 -1.9,-3.8 -28.5,14.6 -57,14 -85.4,-0.6 -2.9,4.9 -6.5,8.2 -11.8,9.2 -7.4,1.5 -13.7,-1 -19.3,-5.4 -7.4,-5.9 -12.7,-13.4 -14.7,-22.8 -1,-4.7 -0.5,-8.9 4,-12.1 2.2,-1.6 2.5,-4.9 3.4,-7.5 3.9,-11.7 11.6,-17.8 24,-18.6 2.4,-0.2 3.4,-1 4,-3.3 2.9,-11.8 6.9,-23.5 12.6,-34.8 m 22.7,-140 c -30.8,10.9 -51.5,32.2 -63.4,62.3 -5.4,13.8 -5.8,27.6 1.9,40.8 4.7,8.1 11.2,14.4 19,19.3 22.2,14.2 46.9,19.8 73,20.3 12.3,0.2 24.3,-0.9 35.8,-5.3 15.1,-5.8 25.9,-15.7 29.8,-31.9 1.7,-7.2 1.9,-14.5 1.3,-21.9 -2.3,-26.8 -12.7,-49.9 -32.4,-68.3 -18.5,-17.3 -40,-22.7 -65,-15.3 m -11.5,228.6 c -0.4,-1.5 0.5,-1.1 1.3,-0.9 5.3,1.6 7,0.2 7.3,-5.5 0.1,-3.3 -1.3,-6.2 -2.1,-9.2 1.1,-0.7 1.6,0.8 2.7,-0.1 -1.3,-4.7 -3.4,-9.3 -5.3,-13.9 -3.5,-8.4 -5.9,-17 -5.8,-26.2 0,-3.4 0.2,-6.8 1.9,-9.9 0.8,0.4 0.8,0.8 0.8,1.3 -0.8,7.7 0.3,15.1 2.4,22.5 2.1,7.6 5.9,14.5 8.6,21.9 2.1,5.9 2.9,11.5 -0.1,17.6 -2.5,5.1 -5.5,9.1 -10.9,11.2 1.5,1.7 3.3,2 4.9,2.6 9.4,3.2 19,3.5 28.8,3.1 11.8,-0.4 23.2,-2.8 33.5,-8.9 2.5,-1.5 3.6,-3 2.3,-5.9 -1.4,-3.2 -2,-6.7 -2.4,-10.2 -1.7,-13.4 3,-33.9 22.2,-39 0.3,-0.1 0.6,-0.4 0.9,-0.6 -0.3,-2.1 -1.5,-3.7 -2.6,-5.3 -6,-8.9 -12,-17.8 -17.9,-26.8 -1.4,-2.1 -3,-2.3 -5.1,-1.9 -22.9,4.2 -45.4,1.4 -67.5,-5.2 -3.4,-1 -4.9,-0.4 -6.3,2.8 -7.2,16.1 -12.5,32.8 -14,50.4 -0.9,11.1 -0.6,22.3 4.8,32.5 2.3,4.4 5.3,8.2 10.6,9.3 0.7,-0.8 -0.7,-1.7 0.2,-2.3 6,3.6 6.9,2.7 10.6,-0.6 -0.2,-0.8 -1,-0.9 -1.6,-1.3 -0.8,-0.4 -1.4,-0.7 -2.2,-1.5 m 107,-171.9 c 4.8,14.8 6.9,29.9 5.1,45.5 4,-0.2 7.4,-1.1 10.7,-2.3 5.5,-2.1 6.3,-3.5 5.2,-9 2.9,0.2 5.8,0.5 8.7,0.4 6.9,0 9.5,-3.8 7.6,-10.4 -0.5,-1.7 -2,-3.2 -1.6,-5.4 2.7,-0.1 5.4,-0.1 8,-0.4 7.8,-0.8 10.7,-5.6 7.5,-12.8 -4.1,-9.4 -9.4,-18 -16.3,-25.7 -7.7,-8.5 -16.9,-14.7 -28.1,-17.6 -9.1,-2.3 -18.2,-2.1 -27.8,0.7 9.4,11.3 16.4,23.2 21,37 m -181,-50.2 c -5.4,4 -10.5,8.3 -14.9,13.3 -4.2,4.7 -3.6,9.2 1.6,12.7 2.2,1.5 4.7,2.7 7.3,3.4 0.8,0.2 1.6,0.3 1.9,1.5 -0.3,0.3 -0.6,0.8 -1,1.2 -7.6,8.3 -6,13.4 4.9,16.1 0.3,0.1 0.7,0 1,0.2 1.2,0.6 2.8,0 3.8,1.7 -1.8,1.6 -3.5,3.3 -1.6,5.9 3.1,4.5 7.5,7.1 12.5,9.6 3.5,-14.9 10.1,-27.9 19.2,-39.6 9.1,-11.7 20.1,-21.5 33.6,-28.9 -8.2,-6 -16.8,-9.5 -26.5,-10.3 -15.5,-1.2 -29,4.1 -41.8,13.2 m 191.1,204.9 c -0.8,1 -1.4,2.4 -3,2.3 -0.3,-1.3 0.4,-2 0.8,-2.8 1,-2.5 1.5,-4.9 -0.4,-7.3 -1.9,-2.4 -4.6,-3 -7.3,-2.2 -13.6,4 -24.3,11.7 -29.2,25.4 -3.9,10.8 1.6,20 12.1,21.7 11.8,1.8 29.6,-7.6 34.6,-18.4 1,-2.1 1.7,-4.3 0.4,-6.5 -2,-0.5 -2.6,2.3 -4.5,1.5 4.3,-9.6 3.7,-15.3 -1.9,-17.7 -0.4,1.2 -0.9,2.4 -1.6,4 m -166.9,17.5 c 3.7,5.1 8.2,9.3 14.2,11.6 7.2,2.8 14.4,0.9 18.1,-4.7 1,-1.5 1.1,-2.5 -0.1,-4 -6.4,-8 -8.8,-17.5 -8.9,-27.5 0,-5.1 -2.6,-7.4 -6.4,-9.3 -3.6,-1.8 -6.8,-0.5 -8,3.4 -0.6,1.8 -0.7,3.7 -1.2,5.9 -2.4,-2.4 -0.7,-5.3 -2,-7.9 -6.6,3.1 -8.5,8.1 -6.7,14.8 -2.2,-0.3 -1.9,-2.6 -3.6,-3.1 -1.7,2 -2.2,4.2 -1.8,6.8 0.9,5.1 3.1,9.5 6.4,14 m 122.4,-28.1 c -1.5,4.3 -1.6,8.9 -1.8,13.4 1.4,-5.3 2.9,-10.4 6.4,-14.7 -0.7,4.6 -2,9 -2.9,13.5 -1.3,6.8 -1.2,10.2 -0.1,13.4 5.8,-14.2 16.5,-23.4 31.4,-27.7 4.3,-1.3 8.1,-0.5 11.2,2.9 0.5,0.6 1.1,1.3 2,0.8 -0.9,-12.6 -14.4,-22.8 -26.5,-20.3 -10.2,2.1 -16.3,8.6 -19.7,18.7 M 171.7,458 c -6.9,1 -12.4,4 -16,10.7 6.8,-0.3 13.3,-4.7 19.1,1.9 1,-3.5 1.1,-6.2 1.4,-9 0.7,-4.4 0.7,-4.4 -4.5,-3.6 z"
         id="path25" /><path
         d="m 258.2,458.7 c 0,-8.3 -1.1,-16.2 -2.6,-24.1 3,3.1 4.2,6.9 4.8,10.9 2.9,20.2 1.6,40 -4.5,59.5 -3.8,12.4 -17.5,14.7 -26.7,10.3 -8.2,-3.9 -11.9,-12.4 -10,-21.7 1.2,-5.7 3.4,-11.2 5.3,-16.7 4.1,-11.7 5.8,-23.8 6.3,-36.1 0,-0.7 0.1,-1.4 0.2,-2.1 0,-0.2 0.3,-0.3 1.1,-0.8 0.7,4.5 1.2,8.7 0.9,12.9 -0.8,11.5 -3.2,22.6 -7.3,33.4 -1.4,3.8 -2.6,7.8 -3.3,11.8 -0.4,2.3 -0.6,4.6 0.3,7 1.2,-0.6 1.1,-2.4 2.6,-2.7 1,1 0.3,2.2 0.3,3.2 0,2.2 0.5,4.1 1.8,5.9 2.7,3.6 4.7,3.7 7.4,0.1 0.4,-0.5 0.5,-1.4 1.4,-1.3 0.2,1.9 0.2,1.9 -1.1,5.1 3.4,0.8 6.4,0.6 8.8,-2.1 0.4,-0.5 1.5,-2.6 2.1,0.2 3.7,-1.7 5.3,-5 6.5,-8.6 2.8,-8.6 4.1,-17.5 4.9,-26.4 0.6,-5.7 1.2,-11.5 0.8,-17.7 z"
         id="path27" /></g></g></svg>
