<?xml version="1.0" encoding="UTF-8" standalone="no"?>
<svg
   version="1.1"
   id="Layer_1"
   x="0px"
   y="0px"
   width="11in"
   viewBox="0 0 1056 816"
   enable-background="new 0 0 750 450"
   xml:space="preserve"
   sodipodi:docname="men-drawing.svg"
   height="8.5in"
   inkscape:version="1.2.1 (9c6d41e410, 2022-07-14)"
   xmlns:inkscape="http://www.inkscape.org/namespaces/inkscape"
   xmlns:sodipodi="http://sodipodi.sourceforge.net/DTD/sodipodi-0.dtd"
   xmlns="http://www.w3.org/2000/svg"
   xmlns:svg="http://www.w3.org/2000/svg"><defs
   id="defs272" /><sodipodi:namedview
   id="namedview270"
   pagecolor="#ffffff"
   bordercolor="#000000"
   borderopacity="0.25"
   inkscape:showpageshadow="2"
   inkscape:pageopacity="0.0"
   inkscape:pagecheckerboard="0"
   inkscape:deskcolor="#d1d1d1"
   showgrid="false"
   inkscape:document-units="in"
   inkscape:zoom="0.87333333"
   inkscape:cx="485.49619"
   inkscape:cy="345.22901"
   inkscape:window-width="1920"
   inkscape:window-height="991"
   inkscape:window-x="859"
   inkscape:window-y="2151"
   inkscape:window-maximized="1"
   inkscape:current-layer="Layer_1" />
<path
   fill="none"
   opacity="1"
   stroke="#000000"
   stroke-linecap="round"
   stroke-linejoin="round"
   stroke-width="2.50619"
   d="m 309.46222,122.25282 c 4.43657,-2.74619 9.35425,-4.63763 13.00716,-8.71924 5.42106,-6.0573 8.31937,-13.21237 9.91694,-20.947416 1.7605,-8.524097 2.19552,-17.215284 1.65129,-25.882724 -0.42465,-6.762375 -1.0726,-13.510288 -3.2139,-20.073005 -3.47361,-10.645879 -10.22351,-17.063056 -21.32175,-19.775176 -9.24407,-2.259016 -18.34766,-2.122121 -27.13701,0.351137 -10.77664,3.032481 -17.48289,10.91818 -19.6204,21.961917 -3.56592,18.423765 -4.25327,36.764452 2.82347,54.720037 3.69464,9.37426 10.93283,15.61562 19.7943,18.37595 6.30976,1.96548 13.8257,1.93706 20.76774,0.0228 0.90577,-0.24976 1.93983,-0.0343 2.91445,-0.0343"
   id="path251" />
<path
   fill="none"
   opacity="1"
   stroke="#000000"
   stroke-linecap="round"
   stroke-linejoin="round"
   stroke-width="2.50619"
   d="m 309.46222,122.67051 c 1.72435,5.83049 2.22574,6.01923 8.35177,6.3112 7.67281,0.36568 14.83492,2.68458 20.85482,7.51292 13.86916,11.12406 26.43596,23.65704 38.40392,36.7687 3.87226,4.24232 7.46198,8.79425 10.51679,13.72137 2.14185,3.45462 2.4235,6.77232 0.43877,10.47449 -4.92687,9.19015 -12.49725,16.15535 -19.75213,23.28737 -7.95293,7.81816 -16.31746,15.2516 -25.39635,21.8055 -2.14137,1.54581 -2.38542,4.24817 -3.638,6.33676 -3.52786,5.88245 -9.33136,6.46764 -13.43881,0.72535 -3.07347,-4.29671 -4.95146,-9.10693 -5.13942,-14.58056 -0.1298,-3.77846 1.22058,-5.95271 4.63045,-7.6051 4.33264,-2.09954 8.75616,-3.77617 13.40608,-4.93202 1.85269,-0.46053 3.77273,-0.72605 5.02391,-2.49505 5.88847,-8.32563 11.81411,-16.62496 17.93471,-25.22628 -9.80186,-11.43569 -19.51252,-22.76497 -29.22318,-34.09422"
   id="path253" />
<path
   fill="none"
   opacity="1"
   stroke="#000000"
   stroke-linecap="round"
   stroke-linejoin="round"
   stroke-width="2.50619"
   d="m 284.8181,123.08821 c -0.2948,4.7749 -2.34517,7.16177 -7.45249,8.59013 -9.19387,2.57123 -16.97246,8.30516 -24.26793,14.41253 -10.13053,8.48074 -20.17155,17.07887 -29.25166,26.71428 -2.02875,2.1528 -4.00624,4.36857 -5.83849,6.6887 -3.32573,4.21125 -3.34511,8.63979 -0.8878,13.36611 4.1078,7.90088 9.39219,14.99974 14.67283,22.10526 1.52766,2.05559 3.20429,4.03069 5.01838,5.83595 2.50185,2.48975 2.07806,5.84691 2.83419,8.81546 1.57801,6.19527 4.70074,9.6324 10.08642,10.42672"
   id="path255" />
<path
   fill="none"
   opacity="1"
   stroke="#000000"
   stroke-linecap="round"
   stroke-linejoin="round"
   stroke-width="3.34158"
   d="m 252.65541,246.7265 c -0.13923,0.69615 -0.39162,1.39082 -0.40088,2.08872 -0.16247,12.25212 -0.50601,24.50699 -0.37189,36.75641 0.12047,11.0026 0.37873,22.03257 1.30072,32.98946 0.93214,11.0777 2.49517,22.11706 4.87592,33.01309 0.67318,3.08078 2.36,4.8149 5.45179,5.44624 6.90851,1.41067 13.67755,0.73 20.48786,-0.78423 2.47137,-0.5495 2.84328,-1.24763 2.60288,-3.84281 -1.83944,-19.85769 -3.37585,-39.76175 -2.50475,-59.71522 0.31647,-7.24896 0.52016,-14.59991 2.35452,-21.73482 0.26862,-1.04481 0.0372,-2.21813 0.0372,-3.33199"
   id="path257" />
<path
   fill="none"
   opacity="1"
   stroke="#000000"
   stroke-linecap="round"
   stroke-linejoin="round"
   stroke-width="2.50619"
   d="m 279.80574,265.10516 c 5.31594,1.57708 10.85863,1.72264 16.30302,2.40337 2.43661,0.30466 3.28163,1.51573 3.73401,3.4473 4.99199,21.31581 9.9341,42.62931 16.55542,63.53925 2.01735,6.37086 4.27551,12.69473 5.98752,19.16847 0.72207,2.73048 2.37468,4.83296 5.04017,4.90356 6.70297,0.17751 13.49082,0.94481 19.71449,-3.10824 2.19377,-1.42864 2.39092,-3.02319 1.93105,-4.70618 -2.90525,-10.63318 -5.18491,-21.39985 -7.57613,-32.15351 -1.73207,-7.78923 -3.31093,-15.60922 -4.80884,-23.43399 -2.587,-13.51416 -3.93845,-27.21135 -5.0863,-40.92014"
   id="path259" />
<path
   fill="none"
   opacity="1"
   stroke="#000000"
   stroke-linecap="round"
   stroke-linejoin="round"
   stroke-width="2.50619"
   d="m 258.50318,171.12335 c -3.55177,1.06566 -5.36162,4.40931 -8.2713,6.38702 -3.54975,2.4128 -6.46928,5.7463 -9.69764,8.64115 -1.5074,1.35168 -2.09527,2.39153 -0.93416,4.65828 3.63228,7.09117 6.94733,14.35918 10.03982,21.70415 0.98461,2.33863 4.21776,3.88405 3.29923,6.59923 -1.00003,2.95602 -0.61418,5.91024 -1.00468,8.83226 -0.6459,4.8334 -1.53638,9.6572 -1.46097,14.60552 0.0406,2.66335 1.28404,3.79517 3.44052,4.14138 13.28533,2.13282 26.59015,4.58704 40.08932,4.09803 9.69476,-0.35118 19.49091,-0.7897 28.8252,-4.06387"
   id="path261" />
<path
   fill="none"
   opacity="1"
   stroke="#000000"
   stroke-linecap="round"
   stroke-linejoin="round"
   stroke-width="3.34158"
   d="m 336.61252,166.94639 c -1.57738,3.1715 -1.33932,6.73992 -1.50921,10.03306 -0.4231,8.20113 -1.11999,16.3928 -1.13645,24.6355 -0.0142,7.11838 -0.39326,14.21789 0.55718,21.30282"
   id="path263" />
<path
   fill="none"
   opacity="1"
   stroke="#000000"
   stroke-linecap="round"
   stroke-linejoin="round"
   stroke-width="3.34158"
   d="m 262.26246,156.50397 c -0.8354,4.45543 -1.73881,8.89945 -2.48872,13.36923 -0.90895,5.41772 -1.68822,10.85718 -2.52361,16.28725 -1.1139,7.24008 -2.30047,14.47013 -3.30036,21.72592 -0.32972,2.39259 0.38904,4.95157 -1.29434,7.09516"
   id="path265" />
<path
   fill="none"
   opacity="1"
   stroke="#000000"
   stroke-linecap="round"
   stroke-linejoin="round"
   stroke-width="2.50619"
   d="m 340.37179,244.63801 c -2.76698,-0.2427 -4.96375,1.56739 -7.51855,2.08849"
   id="path267" />
</svg>
