<?xml version="1.0" encoding="UTF-8" standalone="no"?>
<svg
   version="1.1"
   id="Layer_1"
   x="0px"
   y="0px"
   width="6.3000002in"
   viewBox="0 0 604.80002 384"
   enable-background="new 0 0 750 450"
   xml:space="preserve"
   sodipodi:docname="horse-drawing.svg"
   height="4in"
   inkscape:version="1.2.1 (9c6d41e410, 2022-07-14)"
   xmlns:inkscape="http://www.inkscape.org/namespaces/inkscape"
   xmlns:sodipodi="http://sodipodi.sourceforge.net/DTD/sodipodi-0.dtd"
   xmlns="http://www.w3.org/2000/svg"
   xmlns:svg="http://www.w3.org/2000/svg"><defs
   id="defs334" /><sodipodi:namedview
   id="namedview332"
   pagecolor="#ffffff"
   bordercolor="#000000"
   borderopacity="0.25"
   inkscape:showpageshadow="2"
   inkscape:pageopacity="0.0"
   inkscape:pagecheckerboard="0"
   inkscape:deskcolor="#d1d1d1"
   showgrid="false"
   inkscape:document-units="mm"
   inkscape:zoom="0.61753992"
   inkscape:cx="340.05899"
   inkscape:cy="303.6241"
   inkscape:window-width="1920"
   inkscape:window-height="991"
   inkscape:window-x="859"
   inkscape:window-y="2151"
   inkscape:window-maximized="1"
   inkscape:current-layer="Layer_1" />
<path
   fill="none"
   opacity="1"
   stroke="#000000"
   stroke-linecap="round"
   stroke-linejoin="round"
   stroke-width="1.86939"
   d="m 171.58736,23.800836 c 2.16791,3.647396 0.0443,7.981438 2.20453,11.802896 -4.72756,2.160572 -9.76865,3.12474 -13.45401,6.858281 -3.7684,3.817682 -5.09287,8.556395 -5.50233,13.591704 -0.23286,2.863643 -2.57188,4.212644 -3.96915,5.942227 -5.53609,6.852783 -11.73449,13.166494 -17.57934,19.775595 -2.93136,3.314643 -6.07118,6.575008 -8.29311,10.345296 -1.7362,2.946083 -2.3647,6.686918 -1.03433,10.182485 1.03808,2.72754 2.23312,5.44444 3.7418,7.93368 3.27556,5.4045 8.7359,4.80865 13.97596,4.71533 2.24107,-0.0399 3.0412,-2.00429 3.60901,-3.34119 1.09774,-2.58462 3.26201,-4.32154 5.32044,-4.91083 5.76921,-1.65162 10.6656,-4.60886 15.38519,-8.102574 2.81714,-2.085406 6.2396,-0.621067 9.3626,-1.285448 2.85258,-0.606832 5.55013,-0.504754 8.01531,-2.833312 3.14622,-2.971862 6.53607,-2.087968 8.75405,1.779995 3.57977,6.242769 4.6839,13.387639 7.02492,20.084819 2.59669,7.42856 3.00379,15.36024 5.15278,22.89585"
   id="path317" />
<path
   fill="none"
   opacity="1"
   stroke="#000000"
   stroke-linecap="round"
   stroke-linejoin="round"
   stroke-width="1.86939"
   d="m 179.53227,24.268183 c 1.85108,2.067311 2.45994,4.824772 4.1297,7.067118 3.93194,5.280277 9.43053,6.708191 15.4745,8.001954 14.16743,3.03266 28.0632,6.868882 39.783,16.20038 11.94334,9.509474 21.72592,20.991204 31.31315,32.728566 6.35823,7.784166 12.59945,15.749979 19.71206,22.809239 8.20739,8.14582 18.07471,14.08448 29.31601,17.4395 0.84327,0.25172 1.56629,0.90638 2.34518,1.37373"
   id="path319" />
<path
   fill="none"
   opacity="1"
   stroke="#000000"
   stroke-linecap="round"
   stroke-linejoin="round"
   stroke-width="1.86939"
   d="m 435.63863,298.60109 c 0,2.33674 -0.0825,4.67687 0.0137,7.00964 0.5129,12.43041 -3.0468,23.54383 -10.19424,33.72064 -1.78556,2.54237 -4.99837,4.83618 -4.0416,9.45589 4.73143,-0.78352 9.18798,0.60822 13.82711,-1.41617 3.25232,-1.41921 4.1521,-3.43852 3.58451,-6.2247 -0.86765,-4.25912 -0.33085,-7.49316 3.77998,-9.90041 3.37543,-1.97661 4.48595,-5.21955 4.34452,-9.28091 -0.21644,-6.21834 0.23784,-12.45876 0.35279,-18.69082 0.0289,-1.56295 0.29843,-3.17464 -0.45051,-4.67316"
   id="path321" />
<path
   fill="none"
   opacity="1"
   stroke="#000000"
   stroke-linecap="round"
   stroke-linejoin="round"
   stroke-width="1.86939"
   d="m 249.16703,298.60109 c 0.15577,10.28165 0.18992,20.5672 0.52085,30.84322 0.15541,4.82491 -1.59931,7.96644 -6.10891,9.86379 -4.72653,1.98862 -5.75068,4.88926 -3.75889,9.29916 1.38034,3.0561 0.49607,6.12019 -2.83609,7.39387 -4.75129,1.81617 -9.86205,2.09853 -14.91837,1.8549 -1.00493,-0.0484 -1.94901,-1.35982 -3.13221,-2.24712 3.13417,-4.45357 6.14572,-8.7817 9.21026,-13.07197 2.42131,-3.38978 3.57756,-7.21217 5.03448,-11.08293 3.60214,-9.57021 4.82271,-19.11606 4.33465,-29.11557 -0.0603,-1.23574 0.28211,-2.49108 0.43789,-3.73735"
   id="path323" />
<path
   fill="none"
   opacity="1"
   stroke="#000000"
   stroke-linecap="round"
   stroke-linejoin="round"
   stroke-width="1.86939"
   d="m 465.08152,298.60109 c 2.89759,10.71248 2.57052,21.83675 4.12905,32.72536 0.85933,6.00418 -2.92092,11.15578 -4.16819,16.80482 -0.18575,0.8411 -0.96898,1.53226 -1.35081,2.35103 -2.18613,4.68811 -0.62367,7.11829 4.65014,6.44862 5.09963,-0.64757 10.18454,-1.87921 12.98441,-6.72282 -1.18201,-4.28635 -4.14326,-7.6986 -4.29684,-12.3431 -0.0426,-1.29039 -0.21182,-3.22223 0.29341,-3.63526 6.00671,-4.91057 4.18547,-11.08455 2.61439,-16.90788 -1.66532,-6.17273 -2.81492,-12.36108 -3.17188,-18.72077"
   id="path325" />
<path
   fill="none"
   opacity="1"
   stroke="#000000"
   stroke-linecap="round"
   stroke-linejoin="round"
   stroke-width="1.86939"
   d="m 178.13022,24.735531 c -0.72856,1.583002 -0.5834,3.602863 -2.33673,4.673473"
   id="path327" />
<path
   fill="none"
   opacity="1"
   stroke="#000000"
   stroke-linecap="round"
   stroke-linejoin="round"
   stroke-width="1.86939"
   d="m 173.45675,27.072267 c 2.32655,0.927008 2.67822,3.110774 3.27143,5.140822"
   id="path329" />
</svg>
